<svg aria-hidden="true" style="position: absolute; width: 0; height: 0; overflow: hidden;" version="1.1" xmlns="http://www.w3.org/2000/svg" xmlns:xlink="http://www.w3.org/1999/xlink">
    <defs>
        <symbol id="icon-linkedin" viewBox="0 0 32 32">
            <path d="M29.105 0h-26.211c-1.599 0-2.895 1.296-2.895 2.895v26.211c0 1.599 1.296 2.895 2.895 2.895h26.211c1.599 0 2.895-1.296 2.895-2.895v-26.211c0-1.599-1.296-2.895-2.895-2.895zM9.902 27.631c0 0.465-0.377 0.842-0.842 0.842h-3.586c-0.465 0-0.842-0.377-0.842-0.842v-15.032c0-0.465 0.377-0.842 0.842-0.842h3.586c0.465 0 0.842 0.377 0.842 0.842v15.032zM7.267 10.34c-1.881 0-3.407-1.525-3.407-3.407s1.525-3.407 3.407-3.407 3.407 1.525 3.407 3.407-1.525 3.407-3.407 3.407zM28.642 27.699c0 0.428-0.347 0.775-0.775 0.775h-3.848c-0.428 0-0.775-0.347-0.775-0.775v-7.051c0-1.052 0.309-4.609-2.749-4.609-2.371 0-2.852 2.435-2.949 3.528v8.132c0 0.428-0.347 0.775-0.775 0.775h-3.722c-0.428 0-0.775-0.347-0.775-0.775v-15.167c0-0.428 0.347-0.775 0.775-0.775h3.722c0.428 0 0.775 0.347 0.775 0.775v1.311c0.879-1.32 2.186-2.338 4.969-2.338 6.161 0 6.126 5.756 6.126 8.919v7.275z"></path>
        </symbol>
        <symbol id="icon-github" viewBox="0 0 33 32">
            <path d="M16.285 0c-9.005 0-16.285 7.333-16.285 16.406 0 7.252 4.664 13.391 11.135 15.563 0.809 0.163 1.105-0.353 1.105-0.787 0-0.38-0.027-1.684-0.027-3.042-4.53 0.978-5.473-1.956-5.473-1.956-0.728-1.901-1.807-2.39-1.807-2.39-1.483-1.005 0.108-1.005 0.108-1.005 1.645 0.109 2.508 1.684 2.508 1.684 1.456 2.499 3.801 1.793 4.745 1.358 0.135-1.059 0.566-1.793 1.025-2.2-3.613-0.38-7.414-1.793-7.414-8.094 0-1.793 0.647-3.259 1.671-4.4-0.162-0.407-0.728-2.092 0.162-4.346 0 0 1.375-0.435 4.475 1.684 1.221-0.343 2.622-0.542 4.070-0.543h0.001c1.375 0 2.777 0.19 4.071 0.543 3.101-2.119 4.476-1.684 4.476-1.684 0.89 2.254 0.323 3.939 0.162 4.346 1.052 1.141 1.672 2.607 1.672 4.4 0 6.302-3.801 7.687-7.441 8.094 0.593 0.516 1.105 1.494 1.105 3.042 0 2.2-0.027 3.966-0.027 4.509 0 0.435 0.297 0.951 1.105 0.788 6.471-2.173 11.135-8.312 11.135-15.564 0.027-9.072-7.28-16.406-16.258-16.406z"></path>
        </symbol>
        <symbol id="icon-burger-menu" viewBox="0 0 32 32">
            <path d="M5.333 20v-2.667h21.333v2.667h-21.333zM5.333 14.667v-2.667h21.333v2.667h-21.333z"></path>
        </symbol>
    </defs>
</svg>